<svg width="138" height="34" viewBox="0 0 138 34" fill="none" xmlns="http://www.w3.org/2000/svg">
  <path d="M2 28V6h3.4l8.1 13.4L21.6 6H25v22h-3.3V12.3l-7.1 11.5h-2.2L5.3 12.3V28H2Zm35.7.4c-2.1 0-4-.5-5.6-1.5a10.8 10.8 0 0 1-3.8-4.1 11.7 11.7 0 0 1-1.4-5.8c0-2.2.5-4.1 1.4-5.8a10 10 0 0 1 3.8-4.1c1.6-1 3.5-1.5 5.6-1.5s4 .5 5.6 1.5a10.4 10.4 0 0 1 3.8 4.1c.9 1.7 1.4 3.6 1.4 5.8s-.5 4.1-1.4 5.8a10.5 10.5 0 0 1-3.8 4.1c-1.6 1-3.5 1.5-5.6 1.5Zm0-3.1c1.4 0 2.7-.3 3.8-1a7.4 7.4 0 0 0 2.6-2.9c.6-1.2.9-2.7.9-4.4s-.3-3.2-.9-4.4a7.1 7.1 0 0 0-2.6-2.9c-1.1-.7-2.4-1-3.8-1s-2.7.3-3.8 1a7.1 7.1 0 0 0-2.6 2.9c-.6 1.2-.9 2.7-.9 4.4s.3 3.2.9 4.4a7.4 7.4 0 0 0 2.6 2.9c1.1.7 2.4 1 3.8 1ZM56 28v-8.4L48.8 6h3.8l5.1 10.1L62.8 6h3.7l-7.2 13.6V28H56Zm18.9 0V9.1h-7.2V6h17.8v3.1h-7.2V28h-3.4Zm13.3 0V6h14.3v3.1H91.6v6.3h9.7v3h-9.7v6.5h11.2V28H88.2Zm20.7 0V6h3.4v18.9h10.8V28h-14.2Zm18.4 0V6h3.4v22h-3.4Z" fill="#FFFFFF"/>
</svg>
