<svg id="Capa_1" data-name="Capa 1" xmlns="http://www.w3.org/2000/svg" viewBox="0 0 477.01 211.87"><path d="M370.65,114.27v64.22c-1.42.42-18.85.52-21.16.13V33.31h20.87l.11.11a.33.33,0,0,1,.1.14,2.2,2.2,0,0,1,.07.37,1.09,1.09,0,0,1,0,.18v.37q0,34.47,0,68.94a1.21,1.21,0,0,0,0,.19,1.16,1.16,0,0,0,0,.18l.11.3a12.41,12.41,0,0,0,4.5-.15,17.86,17.86,0,0,0,8.36-2.89,27.29,27.29,0,0,0,6-5.51c3.61-4.62,5.82-10,7.78-15.38,4-11.27,8-22.58,12-33.87l4.58-13h21.44a11.42,11.42,0,0,1-.34,1.42q-8.76,24.54-17.57,49.05A59.39,59.39,0,0,1,410.3,98a22.87,22.87,0,0,1-8.75,7.9c-.94.45-1.93.79-3.18,1.3.75.22,1.22.41,1.72.5a32,32,0,0,1,13,5.72,39.32,39.32,0,0,1,9.06,9.54,86.12,86.12,0,0,1,10.51,21.71q5.44,16,10.95,32c.21.63.37,1.26.61,2.06h-21.4c-.22-.53-.49-1.14-.72-1.76q-5.61-15.39-11.2-30.78c-2.15-5.89-4.28-11.79-7.46-17.22a28.93,28.93,0,0,0-7.07-8.3,27,27,0,0,0-10.57-5.25,49.69,49.69,0,0,0-11.08-1.14Z"/><path d="M32.78,178.71V33.31H54.52l51.19,98.27H106c0-.5.13-1,.14-1.49,0-5.65,0-11.3,0-16.95V33.32h11.92V178.69c-.54.05-1,.14-1.48.14-2.67,0-5.34,0-8,0a2.18,2.18,0,0,1-2.31-1.36c-5.41-10.54-10.89-21.05-16.35-31.56q-8.07-15.52-16.13-31-8.82-17-17.62-34-5.05-9.75-10.11-19.5c-.3-.58-.64-1.15-1-1.72l-.36.08v119Z"/><path d="M243.87,33l21.31,1.09v2.58q0,52.35,0,104.69a50.86,50.86,0,0,0,1.08,11.47c1.11,4.79,3.39,8.79,7.66,11.41a21.87,21.87,0,0,0,9.48,3,60.7,60.7,0,0,0,17.23-.84,23.26,23.26,0,0,0,9.27-3.7,13.45,13.45,0,0,0,4-4.55c2.88-5.27,3.17-11,3.18-16.82q0-52.81,0-105.63V33.28h12c0,.79.07,1.57.07,2.35v54c0,16.52,0,33,0,49.55a92.25,92.25,0,0,1-.69,12.45,35.14,35.14,0,0,1-3.38,11.15,24.7,24.7,0,0,1-12.37,11.56,55.66,55.66,0,0,1-20.08,4.24,114.93,114.93,0,0,1-14.14-.27,52.77,52.77,0,0,1-17.51-4,27.67,27.67,0,0,1-8.35-5.47,25,25,0,0,1-5.79-8.77,36.4,36.4,0,0,1-2.36-9.34,139.39,139.39,0,0,1-.58-14.31q-.06-50.4,0-100.79Z"/><path d="M211.62,33.26h12.1v2.43q0,51.24,0,102.47a106.45,106.45,0,0,1-.71,13.37,34.46,34.46,0,0,1-2.78,10,24.89,24.89,0,0,1-6.31,8.63,28.21,28.21,0,0,1-6.92,4.29c-6.37,2.84-13.14,3.87-20.09,4.16a93.56,93.56,0,0,1-23.33-1.7,35.58,35.58,0,0,1-14.39-6.26,23.27,23.27,0,0,1-5.59-6.17,34.23,34.23,0,0,1-4.46-12.54,61,61,0,0,1-.67-9.84q-.06-53.48,0-106.94V33.08c7.14.16,14.09.72,21.29,1V36.6q0,52.26,0,104.51A51.77,51.77,0,0,0,160.83,153c1.11,4.79,3.43,8.78,7.72,11.36a22.71,22.71,0,0,0,9.88,3,61.92,61.92,0,0,0,16.31-.8,23.5,23.5,0,0,0,9.79-3.85,13.2,13.2,0,0,0,3.89-4.43c2.85-5.14,3.18-10.76,3.19-16.43q0-33.91,0-67.82V33.26Z"/></svg>